# Blender 3.5.1
# www.blender.org
g sim_plumbob_Mesh
v 0.000004 -2.236465 0.000001
v -0.864593 -0.000001 0.502473
v -0.867451 -0.000001 -0.497523
v -0.002858 -0.000000 -0.999996
v 0.864593 0.000001 -0.502473
v 0.867451 0.000002 0.497523
v -0.000004 2.236465 -0.000000
v 0.002858 0.000000 0.999996
vn 0.9325 0.3611 -0.0027
vn 0.4686 0.3611 0.8063
vn -0.4640 0.3611 0.8089
vn -0.9325 0.3611 0.0027
vn -0.4686 0.3611 -0.8063
vn 0.4640 0.3611 -0.8089
vn -0.4640 -0.3611 0.8089
vn 0.4686 -0.3611 0.8063
vn 0.9325 -0.3611 -0.0027
vn 0.4640 -0.3611 -0.8089
vn -0.4686 -0.3611 -0.8063
vn -0.9325 -0.3611 0.0027
vt 0.481120 0.247107
vt 0.496421 0.381856
vt 0.428475 0.508142
vt 0.291525 0.604581
vt 0.230244 0.046286
vt 0.386541 0.126818
vt 0.042434 0.337825
vt 0.480841 0.245360
vt 0.568807 0.496435
vt 0.887468 0.351938
vt 0.495858 0.382214
vt 0.042328 0.337035
vt 0.501590 0.623332
vt 0.705666 0.400065
vt 0.429469 0.508276
vt 0.042114 0.337440
vt 0.500587 0.624277
vt 0.567806 0.497579
vt 0.291728 0.604590
vt 0.042087 0.337554
vt 0.954155 0.667946
vt 0.610010 0.877857
vt 0.109544 0.652741
vt 0.043298 0.334972
vt 0.767422 0.958523
vt 0.516141 0.759149
vt 0.515767 0.759361
vt 0.952733 0.667454
vt 0.954967 0.667356
vt 0.954627 0.667156
vt 0.954982 0.668006
vt 0.955226 0.668769
vt 0.385137 0.126516
vt 0.042086 0.336514
vt 0.705442 0.400015
vt 0.610719 0.878112
s 1
g off
f 1/1/1 3/11/1 2/7/1
s 2
f 1/2/2 4/15/2 3/12/2
s 3
f 1/3/3 5/19/3 4/16/3
s 4
f 1/4/4 6/23/4 5/20/4
s 5
f 1/5/5 8/33/5 6/24/5
s 6
f 1/6/6 2/8/6 8/34/6
s 7
f 7/27/7 4/17/7 5/21/7
s 8
f 3/13/8 4/18/8 7/28/8
s 9
f 2/9/9 3/14/9 7/29/9
s 10
f 8/35/10 2/10/10 7/30/10
s 11
f 6/25/11 8/36/11 7/31/11
s 12
f 5/22/12 6/26/12 7/32/12
